<svg version="1" xmlns="http://www.w3.org/2000/svg" width="1706.667" height="1222.667" viewBox="0 0 1280.000000 917.000000"><path d="M804.5.6c-23.3 1.5-49 4.7-72.5 8.9-7.4 1.4-21.2 3.6-30.7 5-9.5 1.3-28.6 4.5-42.5 7C565.9 38.1 544 40.7 501 39.7c-32.2-.7-42.1-2.2-77.5-11.7-41.3-11-59.6-13.9-76.4-12-20.1 2.3-33.1 8.8-48.6 24.4C277 62 264.1 80.7 237 129.5c-13.1 23.7-23.1 40.7-29 49.5-2 3-5.8 9.3-8.5 14-17 29.9-60.1 91-76 107.9l-6.3 6.6 6.2-3c8-3.9 15.6-10.4 27.9-24 19.5-21.7 31.6-39.3 64.4-94 32.6-54.1 32.7-54.3 39.3-66.5 23.9-43.8 51.8-80.6 70.9-93.4l6.6-4.5 11 1.8c13.6 2.3 26.6 5.4 55 13.2 50 13.8 66.4 15.9 107.1 14 41.2-1.9 68.2-5.4 145.9-19.1C731.6 17.9 759.4 14.1 797 12c31.5-1.7 38.6-1.4 68.9 3 80.5 11.8 117.5 21 150.9 37.3 15.2 7.4 54.4 28.2 61.7 32.6 33.7 20.7 67.2 51.8 93 86.5 11.2 15.1 39.5 58.1 49.1 74.6 15.7 27.1 29.2 58.6 34.8 81 5.9 23.8 5.7 19.6 6.7 117 1 90.2.7 123.5-1.2 151-3.1 46.2-11 88.7-20.9 113-10 24.6-15.1 54.3-15.1 87.5 0 25.9 1.3 35.7 7.8 56.7.3 1 .9 1.8 1.4 1.8 1.4 0 6.5-11 8.5-18.5 2.4-8.8 2.6-33.7.5-62.5-1.1-15.7-1.1-21.5-.2-30 1.5-12.7 4.8-23.5 9.7-31.5 6.1-10.2 14.1-37.8 18.8-65.5 6.7-38.6 7.5-57.7 7.8-179.5.3-112.4.2-113.9-5.7-142.9-4.4-21.6-8.5-32.6-23.2-61.4-7.5-14.7-16.1-31-19.1-36.2-17.2-29.5-43-64.3-71.6-96.5-24-27.1-24.2-27.2-42.2-39.1-64.5-42.5-110.5-63.3-163.4-73.9-6.3-1.3-17.3-3.7-24.5-5.4C898.3 3.8 874.3 1 838 .6c-15.1-.2-30.2-.2-33.5 0zM57.5 304c-14.9 2-30.2 8-41 16.3C10.7 324.7 3 332 4.2 332c3.5 0 17.2-7.4 25.4-13.6l4.7-3.6 15.6.7c18.2.7 30.3 2.1 34.7 4 2.4 1 4.3 1.1 7.8.3 10.4-2.2 21.8 4.5 36.3 21.4 14.2 16.5 18.1 20.4 22.2 22.3 2.6 1.1 4.9 1.5 6.7 1.1 3-.8 9.4-7.2 9.4-9.4s-8.4-12.4-15.9-19.4c-25.2-23.3-62.2-35.9-93.6-31.8z"/><path d="M474.3 326.5l-5.3 2.4 1.4 3.9c4.7 13.2 10.9 21.2 37.3 48.6 11.7 12 23.6 25.2 26.5 29.3 2.9 4.1 8 11.1 11.2 15.6 3.3 4.5 12.7 15 21 23.3 21.5 21.5 36.3 33.1 82 63.9 20.2 13.7 26.2 17.2 32.3 19.1 8 2.6 15.2 3.1 17.1 1.2 5.8-5.8-12.2-24.9-28.3-29.8-10-3.1-33.7-17.7-50.7-31.2-20.4-16.2-38.7-35.4-74.8-78.3-25.4-30.1-38.2-44.4-52.7-58.7l-11.8-11.6-5.2 2.3zm-455.8 4.1c-23 11.6-24.5 41.2-3.4 66.4 13.7 16.3 19.4 26.1 24.8 42.7 5.1 15.7 6.5 25.6 6.5 46.8 0 23.2-1.5 35-9.5 74-6.1 30.2-6.8 37.1-4.9 49.5 1.8 11.5 7.2 26.1 15.8 43 30 58.7 31.2 61.4 34.8 79 2.5 12.5 1.6 30.8-2.1 41-4.8 13.4-5.7 18-5.3 26.5 1.3 22.7 18.7 33.8 55.3 35.2 26.5 1 54.9-4.1 74.9-13.5 44.5-21.1 76.6-60.3 105.7-129.5 5-11.7 14.1-35.5 24.5-64.2 3-8.3 7.2-17.9 9.3-21.5 5-8.3 7.3-15.5 6.9-21.1-.3-3.9-.6-4.4-3-4.7-1.9-.2-3.8.7-6.8 3.5-7.4 6.6-11.4 13.7-16.3 29.1-15.2 47-37.2 100.5-56.8 138.1-4.9 9.3-9.5 16.4-15.3 23.5-9.4 11.3-24.8 26.6-31.6 31.3-12.2 8.3-26.9 13.4-44 15.1-5.8.6-16.1 1.7-23 2.4-18.9 1.9-32.4 1.6-38.1-.9-5.5-2.5-11.1-7.9-13.9-13.3-4.8-9.5-5.2-13.2-6-56.5-1-51.9-1.2-53.1-13.9-72.5-12.7-19.4-23.2-43.8-28-65-3.7-16.7-4.6-25.3-4.5-44.5 0-26.9 3.4-46.4 12.7-74.5 4.9-14.5 6.1-21.7 5.4-30.6-1.3-14.8-7.5-28.8-24.5-55.4-19.9-31.1-24.6-42.2-24.6-58.5 0-7.8.5-11.4 2.3-16.4 1.2-3.5 2.1-6.5 1.9-6.7-.2-.1-2.6.9-5.3 2.2z"/><path d="M66.2 358.9c-8.7 3-15.1 10.8-17.6 21.3-.6 2.6-.5 2.6 2.5 1.8 1.7-.5 5-2 7.3-3.4C62.8 376 72 366.8 72 365c0-1.7 8.1 2.8 12.3 6.9 2.2 2 9 10.6 15.2 19.1 6.2 8.5 12.5 16.6 13.9 17.9l2.6 2.5 3.6-3.5c6.9-6.5 8.1-13.7 3.9-22.8C116.9 370.9 93.3 357 76 357c-2.5.1-6.9.9-9.8 1.9zm258 14.1c-3.4 1.7-7.1 4.4-8.2 6-2.6 3.7-2.6 10.2.1 16 6.7 14.4 13.3 41.3 20.9 84.5 12.6 71.5 20.3 95.2 41.7 127.5 27 40.8 50.2 84.6 76.3 144 11.7 26.6 16.9 35.3 25.3 42.5 7.5 6.5 10.3 3.9 9.5-8.9-1-14.5-10.3-37.3-19.3-47.4-2.4-2.6-5.5-7.7-7-11.2-17.5-42-45.4-94-76.2-142-6.5-10.1-8-13.4-12.8-28.2-7.4-22.7-13.8-49.3-23.5-97.8-7.6-37.8-16.2-75.5-19.2-84.3l-1.4-3.8-6.2 3.1zm806 17.4c-5.5 2.7-8.4 4.8-8.7 6.1-20.9 95.4-39.2 142.5-70.3 181.2-9.7 12-19.6 21.3-34.7 32.8-35.8 27.1-84.2 78.1-102.5 107.9-2.3 3.8-7.8 11.7-12.2 17.5C876.7 768.8 856 805.5 844 838c-4.2 11.6-10.2 33.6-11.5 42.1-.7 4.6-.6 4.7 2.6 5.8 5.2 1.8 7 1.3 11-2.9 4.9-5.1 7.5-13.4 12.9-40.5 4.6-22.9 7.9-33.6 12.1-39.5 1.6-2.3 7.5-11.6 13.1-20.8 21.2-35.1 43.2-66.9 64.2-93.2 27.5-34.4 57.7-65 76.6-77.6 44.4-29.5 75-77.9 97-153.9 5.5-19 17.6-70.3 16.8-71-.2-.2-4 1.6-8.6 3.9zM615.5 519.2c-13 6.6-12.9 6-11.4 37.6 1.2 26.4.8 72.5-1.1 136.7-.5 18.2-1.1 47.4-1.2 65l-.3 31.9 2.8 1c5.7 2 11.2-5.5 14.4-19.5 2.1-9.3 2.5-48.2.5-56.9-1-4.3-1-8-.1-16.5.8-8.2 3.2-180.9 2.5-182.2-.1-.1-2.8 1.2-6.1 2.9zm497 20.2c-26 12.4-41.5 42.9-41.5 81.3 0 10.8.4 13.7 3.5 25 1.9 7.1 7.1 29.2 11.5 49.3 11.3 50.9 15.3 66.3 22.2 86.5 4.5 12.9 4.2 12.5 8 11.4 5.1-1.4 7.7-4.8 8.7-11 1.9-11.2-.8-23.7-12.9-60.4-17.1-52-23-79.8-23-108.2-.1-31 7.2-52 24.4-70 3.8-4 6.7-7.3 6.4-7.3-.2 0-3.5 1.5-7.3 3.4zM725.9 542c-6.1 3.2-11.6 10.4-12.9 16.6-.7 3.1-.9 6.2-.6 7.1.4.8-1.2 7-3.5 13.7-5.5 16.3-10.4 37.5-13.1 57.1l-2.2 16.2-5.4 2.8c-8.5 4.5-14.3 11.9-23.2 29.8-4.4 8.7-8.8 17-9.8 18.5-3.3 4.6-8.3 15.3-8 16.9.9 4.3 17-12.8 29.3-31.2 4-6.1 9.4-15.1 11.9-20l4.5-9-.6 23c-.3 14.4-.1 30.8.7 44 .8 11.5 1.4 28.2 1.5 37 .1 17.1.6 19.7 3.8 23.2 3.9 4.3 9.2 2.7 13.1-4 4.9-8.3 5.2-18.8 1.2-38.2-3.4-16.4-4.1-26.2-4-54.5 0-23.4.4-31.4 2.2-44.5 3.6-26.8 10.1-59.3 18.6-93.3 3.7-14.7 3.6-15-3.5-11.2zM86 638.8c-6.3 3.2-9.6 8.4-8.1 12.4 1.6 4.4 14.3 18.2 18.5 20.2 4.7 2.2 6.1 2 9.7-1.2 6-5.4 4.9-17.5-2.4-25.8-3.2-3.6-10-8.4-12-8.4-.3 0-2.8 1.2-5.7 2.8zm360.2 115.4c-10.9 5.4-15.3 12.6-16.8 27.5-.5 4.9-.3 6.2 1.3 8.2 1.9 2.3 2.3 2.4 5.1 1.2 10.1-4.2 20.3-25.3 17.6-36.4l-.9-3.6-6.3 3.1zm630.8 42.5c-9.2 9.3-12.4 16.2-11.8 25.3 1.4 18.9 23.7 38.3 55.8 48.5 10 3.1 22.6 5.5 29.3 5.5 2.6 0 4.7.4 4.7.9 0 1.6 23.4 2.2 45 1.1 29.7-1.5 40.6-3.3 38-6.5-2.5-3-11.3-4.3-33.7-4.9-56.9-1.6-90.4-10.5-107.4-28.3-9.9-10.3-13.6-20.8-12.5-35.4.3-4.8 1-9.8 1.6-11.3 1.7-4.5-.8-3.1-9 5.1zm-619 6.2c-7.4 2.3-18.4 9.7-19.5 13.1-.4 1.1.1 4.5.9 7.4 2.9 9.9 13.8 19.6 28.9 25.8 18.9 7.7 41.9 11.3 66.7 10.4 17.4-.5 23.1-1.4 23.8-3.4.7-2.2-7-4.4-27.3-7.8-11-1.9-23.6-4.1-28-5-17.5-3.5-33.7-10.1-42.3-17.1-3.9-3.2-10.2-12.4-10.2-14.8 0-.6 2.3-2.5 5-4.3 2.8-1.7 5-3.7 5-4.2 0-.6-.1-1-.2-.9-.2 0-1.4.4-2.8.8zm186.5 17.2c-10.4 1.4-21.9 4.6-28.3 7.8-3.2 1.6-10 6.8-15.2 11.6-12.4 11.3-13.5 12.6-7.6 8.1 2.7-2 5.3-3.6 5.7-3.6.5 0 .8-.5.7-1.1-.4-1.5 11.7-7.5 18.8-9.4 11.1-2.9 21.3-2.9 46.1-.1 28.7 3.3 43.1 3.8 44.6 1.5 3.1-4.8-2.7-9.8-15.3-13.1-8.8-2.3-37.8-3.3-49.5-1.7zm-36.2 55.1c-7.5 7.8-4.7 13.8 10 21.4 9.9 5.1 25.9 10.1 35.7 11.3 62.1 7.5 116.7 10.4 154 8.2 21.6-1.3 30.2-3.2 39.5-8.4 8-4.6 5-5.7-12-4.5-6 .4-17.6 1.7-25.6 2.8-13.8 2-15.2 2-25 .6-10.1-1.5-24.6-2.4-68.1-4.6-11.4-.6-24.5-1.5-29-2.1-27.7-3.3-50-10.8-68-22.9-4.2-2.7-7.8-5-8-5-.2 0-1.8 1.5-3.5 3.2z"/></svg>